<?xml version="1.0" encoding="UTF-8"?>
<!DOCTYPE svg PUBLIC "-//W3C//DTD SVG 1.1//EN" "http://www.w3.org/Graphics/SVG/1.1/DTD/svg11.dtd">
<!-- Creator: CorelDRAW -->
<svg xmlns="http://www.w3.org/2000/svg" xml:space="preserve" width="60mm" height="60mm" version="1.1" style="shape-rendering:geometricPrecision; text-rendering:geometricPrecision; image-rendering:optimizeQuality; fill-rule:evenodd; clip-rule:evenodd"
viewBox="0 0 6000 6000"
 xmlns:xlink="http://www.w3.org/1999/xlink"
 xmlns:xodm="http://www.corel.com/coreldraw/odm/2003">
 <defs>
  <style type="text/css">
   <![CDATA[
    .fil0 {fill:#B72E2E}
    .fil1 {fill:black;fill-rule:nonzero}
   ]]>
  </style>
 </defs>
 <g id="Capa_x0020_1">
  <metadata id="CorelCorpID_0Corel-Layer"/>
  <path class="fil0" d="M2996.19 5635.78c1462.78,0 2648.54,-1178.39 2648.54,-2631.96 0,-1453.62 -1185.76,-2632.01 -2648.54,-2632.01 -1462.73,0 -2648.54,1178.39 -2648.54,2632.01 0,1453.57 1185.81,2631.96 2648.54,2631.96z"/>
  <path class="fil1" d="M3434.47 4393.04c-20.6,-46.24 -38.6,-93.38 -54.02,-141.37 -15.41,-49.68 -27.39,-99.36 -35.97,-149.05 -89.09,102.81 -197.93,185.92 -326.43,249.32 -126.8,63.4 -272.46,95.08 -436.92,95.08 -272.46,0 -489.25,-73.68 -650.32,-221.04 -159.33,-149.09 -239.04,-351.27 -239.04,-606.57 0,-260.49 104.55,-461.81 313.61,-604.03 209.06,-142.22 515.74,-213.35 920.14,-213.35l383 0 0 -272.46c0,-133.64 -38.56,-237.29 -115.68,-310.97 -77.12,-73.72 -191.05,-110.54 -341.85,-110.54 -85.69,0 -161.92,10.28 -228.76,30.83 -66.84,18.86 -120.81,42 -161.92,69.39l-48.83 298.15 -565.47 0 2.59 -616.85c137.07,-92.54 293.86,-170.5 470.34,-233.9 178.19,-63.4 371.83,-95.08 580.89,-95.08 344.39,0 623.73,84.8 837.93,254.45 215.89,167.91 323.84,407.79 323.84,719.66l0 1148.95c0,42.85 0,83.1 0,120.77 1.7,37.71 5.14,73.72 10.27,107.99l228.77 30.83 0 449.79 -866.17 0zm-650.32 -501.22c113.09,0 215.9,-23.99 308.43,-71.93 92.53,-49.73 164.51,-111.39 215.94,-185.07l0 -424.1 -383 0c-159.33,0 -280.14,37.71 -362.4,113.08 -82.26,73.68 -123.36,162.77 -123.36,267.33 0,94.23 29.98,167.9 89.94,221.03 61.7,53.12 146.5,79.66 254.45,79.66z"/>
 </g>
</svg>
