<?xml version="1.0" encoding="UTF-8"?>
<!DOCTYPE svg PUBLIC "-//W3C//DTD SVG 1.1//EN" "http://www.w3.org/Graphics/SVG/1.1/DTD/svg11.dtd">
<!-- Creator: CorelDRAW -->
<svg xmlns="http://www.w3.org/2000/svg" xml:space="preserve" width="60mm" height="20mm" version="1.1" style="shape-rendering:geometricPrecision; text-rendering:geometricPrecision; image-rendering:optimizeQuality; fill-rule:evenodd; clip-rule:evenodd"
viewBox="0 0 6000 2000"
 xmlns:xlink="http://www.w3.org/1999/xlink"
 xmlns:xodm="http://www.corel.com/coreldraw/odm/2003">
 <defs>
  <style type="text/css">
   <![CDATA[
    .fil0 {fill:fuchsia}
    .fil1 {fill:lime;fill-rule:nonzero}
    .fil2 {fill:#FF6600;fill-rule:nonzero}
   ]]>
  </style>
 </defs>
 <g id="Capa_x0020_1">
  <metadata id="CorelCorpID_0Corel-Layer"/>
  <g id="_3027050979792">
   <path class="fil0" d="M1041.41 1555.48c305.31,0 552.81,-245.96 552.81,-549.35 0,-303.41 -247.5,-549.36 -552.81,-549.36 -305.31,0 -552.81,245.95 -552.81,549.36 0,303.39 247.5,549.35 552.81,549.35z"/>
   <path class="fil1" d="M1126.89 1314.32c-4.3,-9.65 -8.06,-19.49 -11.28,-29.5 -3.21,-10.37 -5.71,-20.74 -7.5,-31.11 -18.6,21.46 -41.32,38.8 -68.14,52.03 -26.46,13.24 -56.87,19.85 -91.19,19.85 -56.87,0 -102.12,-15.38 -135.74,-46.13 -33.26,-31.12 -49.89,-73.32 -49.89,-126.61 0,-54.37 21.82,-96.39 65.45,-126.07 43.64,-29.69 107.65,-44.54 192.06,-44.54l79.94 0 0 -56.86c0,-27.9 -8.05,-49.53 -24.15,-64.91 -16.09,-15.39 -39.87,-23.07 -71.35,-23.07 -17.88,0 -33.79,2.14 -47.75,6.43 -13.95,3.94 -25.21,8.77 -33.79,14.49l-10.19 62.23 -118.03 0 0.54 -128.76c28.61,-19.31 61.34,-35.58 98.17,-48.82 37.19,-13.23 77.61,-19.84 121.25,-19.84 71.88,0 130.18,17.7 174.89,53.11 45.06,35.05 67.59,85.12 67.59,150.21l0 239.81c0,8.94 0,17.35 0,25.21 0.36,7.87 1.08,15.38 2.15,22.54l47.75 6.43 0 93.88 -180.79 0zm-135.74 -104.61c23.6,0 45.06,-5.01 64.38,-15.02 19.31,-10.38 34.33,-23.24 45.07,-38.62l0 -88.52 -79.94 0c-33.26,0 -58.47,7.87 -75.64,23.6 -17.17,15.38 -25.75,33.97 -25.75,55.8 0,19.66 6.26,35.04 18.77,46.13 12.88,11.09 30.58,16.63 53.11,16.63z"/>
   <path class="fil2" d="M2220.99 1259.84c-3.44,-7.72 -6.44,-15.59 -9.02,-23.6 -2.57,-8.3 -4.58,-16.6 -6,-24.89 -14.89,17.16 -33.05,31.04 -54.51,41.63 -21.17,10.58 -45.49,15.88 -72.97,15.88 -45.49,0 -81.68,-12.31 -108.58,-36.91 -26.6,-24.89 -39.91,-58.66 -39.91,-101.29 0,-43.49 17.46,-77.11 52.36,-100.85 34.91,-23.76 86.13,-35.63 153.65,-35.63l63.95 0 0 -45.49c0,-22.32 -6.44,-39.63 -19.31,-51.93 -12.88,-12.3 -31.91,-18.46 -57.08,-18.46 -14.31,0 -27.05,1.72 -38.2,5.15 -11.17,3.15 -20.17,7.01 -27.05,11.59l-8.15 49.78 -94.42 0 0.43 -103c22.89,-15.45 49.07,-28.46 78.54,-39.06 29.76,-10.58 62.09,-15.87 97,-15.87 57.51,0 104.15,14.16 139.91,42.49 36.05,28.03 54.08,68.09 54.08,120.17l0 191.84c0,7.15 0,13.87 0,20.17 0.28,6.29 0.86,12.3 1.72,18.03l38.19 5.14 0 75.11 -144.63 0zm-108.59 -83.69c18.89,0 36.06,-4 51.51,-12.02 15.45,-8.29 27.46,-18.59 36.05,-30.89l0 -70.82 -63.95 0c-26.61,0 -46.78,6.29 -60.52,18.88 -13.73,12.31 -20.6,27.19 -20.6,44.64 0,15.74 5.01,28.04 15.02,36.91 10.31,8.87 24.47,13.3 42.49,13.3zm286.69 -305.14l0 -75.54 181.98 0 6.01 54.08c13.73,-20.03 30.18,-35.49 49.35,-46.36 19.18,-10.86 41.49,-16.3 66.95,-16.3 57.52,0 102.15,22.46 133.91,67.38 31.76,44.92 47.64,104 47.64,177.25l0 9.01c0,68.68 -15.88,123.89 -47.64,165.67 -31.76,41.77 -76.11,62.66 -133.04,62.66 -24.32,0 -45.93,-4.44 -64.81,-13.31 -18.89,-9.15 -35.05,-22.46 -48.5,-39.91l0 134.34 60.52 12.87 0 75.53 -245.92 0 0 -75.53 60.51 -12.87 0 -466.09 -66.96 -12.88zm360.52 160.51c0,-43.77 -7.29,-79.26 -21.89,-106.43 -14.59,-27.19 -36.91,-40.77 -66.95,-40.77 -18.88,0 -35.04,3.86 -48.49,11.58 -13.17,7.72 -23.62,18.74 -31.34,33.05l0 203.43c7.72,13.16 18.17,23.17 31.34,30.04 13.45,6.87 29.9,10.3 49.35,10.3 30.33,0 52.5,-11.88 66.52,-35.62 14.31,-23.74 21.46,-55.94 21.46,-96.57l0 -9.01zm403.43 237.34c-66.95,0 -120.45,-21.46 -160.52,-64.38 -40.05,-42.92 -60.08,-97.42 -60.08,-163.52l0 -17.17c0,-68.95 18.88,-125.75 56.65,-170.38 38.06,-44.63 88.99,-66.81 152.8,-66.52 62.66,0 111.3,18.88 145.92,56.64 34.61,37.77 51.93,88.85 51.93,153.23l0 68.23 -277.25 0 -0.86 2.58c2.28,30.61 12.44,55.79 30.47,75.53 18.31,19.75 43.06,29.62 74.25,29.62 27.75,0 50.78,-2.72 69.09,-8.16 18.32,-5.71 38.35,-14.58 60.09,-26.6l33.91 77.25c-19.18,15.16 -44.07,27.89 -74.69,38.2 -30.32,10.29 -64.23,15.45 -101.71,15.45zm-11.15 -385.41c-23.19,0 -41.49,8.88 -54.94,26.61 -13.45,17.74 -21.75,41.06 -24.89,69.96l1.28 2.14 153.65 0 0 -11.15c0,-26.62 -6.3,-47.79 -18.88,-63.52 -12.31,-16.02 -31.04,-24.04 -56.22,-24.04zm248.06 -12.44l0 -75.54 181.97 0 6.01 54.08c13.74,-20.03 30.19,-35.49 49.36,-46.36 19.16,-10.86 41.49,-16.3 66.95,-16.3 57.51,0 102.14,22.46 133.91,67.38 31.75,44.92 47.63,104 47.63,177.25l0 9.01c0,68.68 -15.88,123.89 -47.63,165.67 -31.77,41.77 -76.11,62.66 -133.05,62.66 -24.32,0 -45.92,-4.44 -64.81,-13.31 -18.88,-9.15 -35.05,-22.46 -48.5,-39.91l0 134.34 60.51 12.87 0 75.53 -245.92 0 0 -75.53 60.52 -12.87 0 -466.09 -66.95 -12.88zm360.51 160.51c0,-43.77 -7.29,-79.26 -21.88,-106.43 -14.6,-27.19 -36.91,-40.77 -66.95,-40.77 -18.9,0 -35.06,3.86 -48.51,11.58 -13.15,7.72 -23.6,18.74 -31.33,33.05l0 203.43c7.73,13.16 18.18,23.17 31.33,30.04 13.45,6.87 29.9,10.3 49.37,10.3 30.32,0 52.49,-11.88 66.52,-35.62 14.3,-23.74 21.45,-55.94 21.45,-96.57l0 -9.01zm403.44 237.34c-66.95,0 -120.47,-21.46 -160.52,-64.38 -40.05,-42.92 -60.08,-97.42 -60.08,-163.52l0 -17.17c0,-68.95 18.88,-125.75 56.65,-170.38 38.05,-44.63 88.98,-66.81 152.78,-66.52 62.66,0 111.3,18.88 145.93,56.64 34.62,37.77 51.93,88.85 51.93,153.23l0 68.23 -277.26 0 -0.85 2.58c2.29,30.61 12.44,55.79 30.47,75.53 18.31,19.75 43.06,29.62 74.24,29.62 27.76,0 50.79,-2.72 69.11,-8.16 18.31,-5.71 38.34,-14.58 60.08,-26.6l33.91 77.25c-19.17,15.16 -44.06,27.89 -74.68,38.2 -30.33,10.29 -64.23,15.45 -101.71,15.45zm-11.17 -385.41c-23.17,0 -41.48,8.88 -54.93,26.61 -13.44,17.74 -21.74,41.06 -24.9,69.96l1.29 2.14 153.65 0 0 -11.15c0,-26.62 -6.29,-47.79 -18.88,-63.52 -12.3,-16.02 -31.05,-24.04 -56.23,-24.04zm266.96 301.28l60.08 -12.87 0 -287.97 -66.52 -12.88 0 -75.54 183.26 0 5.57 67.82c10.88,-24.05 24.89,-42.78 42.07,-56.23 17.17,-13.45 37.06,-20.17 59.66,-20.17 6.56,0 13.45,0.57 20.61,1.72 7.42,0.85 13.57,1.99 18.45,3.43l-13.32 114.16 -51.5 -1.28c-18.31,0 -33.48,3.57 -45.5,10.72 -12.01,7.15 -21.17,17.31 -27.46,30.48l0 225.74 60.08 12.87 0 75.11 -245.48 0 0 -75.11zm356.64 0l60.53 -12.87 0 -287.97 -66.97 -12.88 0 -75.54 192.29 0 0 376.39 60.07 12.87 0 75.11 -245.92 0 0 -75.11zm185.85 -500.42l-125.32 0 0 -93.99 125.32 0 0 93.99zm396.98 575.53c-3.43,-7.72 -6.44,-15.59 -9,-23.6 -2.57,-8.3 -4.59,-16.6 -6.03,-24.89 -14.87,17.16 -33.03,31.04 -54.5,41.63 -21.17,10.58 -45.48,15.88 -72.96,15.88 -45.47,0 -81.68,-12.31 -108.57,-36.91 -26.63,-24.89 -39.93,-58.66 -39.93,-101.29 0,-43.49 17.45,-77.11 52.37,-100.85 34.91,-23.76 86.13,-35.63 153.64,-35.63l63.96 0 0 -45.49c0,-22.32 -6.44,-39.63 -19.32,-51.93 -12.88,-12.3 -31.9,-18.46 -57.07,-18.46 -14.32,0 -27.05,1.72 -38.2,5.15 -11.17,3.15 -20.18,7.01 -27.04,11.59l-8.16 49.78 -94.41 0 0.42 -103c22.9,-15.45 49.07,-28.46 78.53,-39.06 29.76,-10.58 62.11,-15.87 97,-15.87 57.52,0 104.15,14.16 139.93,42.49 36.05,28.03 54.06,68.09 54.06,120.17l0 191.84c0,7.15 0,13.87 0,20.17 0.29,6.29 0.86,12.3 1.73,18.03l38.2 5.14 0 75.11 -144.65 0zm-108.57 -83.69c18.88,0 36.06,-4 51.5,-12.02 15.44,-8.29 27.47,-18.59 36.05,-30.89l0 -70.82 -63.96 0c-26.6,0 -46.78,6.29 -60.5,18.88 -13.74,12.31 -20.6,27.19 -20.6,44.64 0,15.74 5.01,28.04 15.03,36.91 10.28,8.87 24.45,13.3 42.48,13.3z"/>
  </g>
 </g>
</svg>
