<?xml version="1.0" encoding="UTF-8"?>
<!DOCTYPE svg PUBLIC "-//W3C//DTD SVG 1.1//EN" "http://www.w3.org/Graphics/SVG/1.1/DTD/svg11.dtd">
<!-- Creator: CorelDRAW -->
<svg xmlns="http://www.w3.org/2000/svg" xml:space="preserve" width="100mm" height="50mm" version="1.1" style="shape-rendering:geometricPrecision; text-rendering:geometricPrecision; image-rendering:optimizeQuality; fill-rule:evenodd; clip-rule:evenodd"
viewBox="0 0 10000 5000"
 xmlns:xlink="http://www.w3.org/1999/xlink"
 xmlns:xodm="http://www.corel.com/coreldraw/odm/2003">
 <defs>
  <style type="text/css">
   <![CDATA[
    .fil0 {fill:fuchsia}
    .fil1 {fill:lime;fill-rule:nonzero}
    .fil2 {fill:#FF6600;fill-rule:nonzero}
   ]]>
  </style>
 </defs>
 <g id="Capa_x0020_1">
  <metadata id="CorelCorpID_0Corel-Layer"/>
  <path class="fil0" d="M1330.5 2527.39c530.26,0 960.1,-427.17 960.1,-954.09 0,-526.94 -429.84,-954.1 -960.1,-954.1 -530.24,0 -960.09,427.16 -960.09,954.1 0,526.92 429.85,954.09 960.09,954.09z"/>
  <path class="fil1" d="M1478.96 2108.56c-7.47,-16.76 -14,-33.85 -19.58,-51.24 -5.59,-18.01 -9.93,-36.02 -13.04,-54.04 -32.3,37.27 -71.75,67.4 -118.33,90.38 -45.97,22.98 -98.77,34.47 -158.39,34.47 -98.76,0 -177.35,-26.71 -235.74,-80.13 -57.76,-54.04 -86.65,-127.33 -86.65,-219.88 0,-94.43 37.9,-167.41 113.68,-218.96 75.79,-51.55 186.96,-77.34 333.55,-77.34l138.84 0 0 -98.77c0,-48.44 -13.98,-86.02 -41.93,-112.72 -27.96,-26.73 -69.26,-40.07 -123.92,-40.07 -31.07,0 -58.7,3.72 -82.93,11.17 -24.23,6.84 -43.79,15.23 -58.69,25.16l-17.71 108.07 -204.98 0 0.94 -223.6c49.69,-33.55 106.52,-61.81 170.5,-84.79 64.59,-22.99 134.79,-34.47 210.57,-34.47 124.84,0 226.1,30.74 303.75,92.24 78.26,60.87 117.39,147.83 117.39,260.88l0 416.49c0,15.53 0,30.13 0,43.78 0.62,13.67 1.87,26.72 3.73,39.15l82.92 11.17 0 163.05 -313.98 0zm-235.74 -181.69c40.99,0 78.26,-8.7 111.8,-26.08 33.55,-18.02 59.64,-40.37 78.28,-67.08l0 -153.74 -138.84 0c-57.75,0 -101.55,13.67 -131.37,40.99 -29.81,26.71 -44.71,59.01 -44.71,96.91 0,34.16 10.86,60.86 32.6,80.12 22.37,19.26 53.11,28.88 92.24,28.88z"/>
  <path class="fil2" d="M3379.15 2013.94c-5.98,-13.41 -11.19,-27.08 -15.66,-40.99 -4.47,-14.42 -7.96,-28.83 -10.43,-43.23 -25.85,29.8 -57.4,53.9 -94.67,72.3 -36.77,18.38 -79.01,27.58 -126.72,27.58 -79.01,0 -141.87,-21.38 -188.58,-64.1 -46.21,-43.23 -69.32,-101.88 -69.32,-175.91 0,-75.54 30.32,-133.93 90.94,-175.17 60.63,-41.25 149.58,-61.87 266.84,-61.87l111.08 0 0 -79c0,-38.76 -11.2,-68.84 -33.55,-90.2 -22.36,-21.37 -55.41,-32.06 -99.14,-32.06 -24.84,0 -46.97,2.98 -66.34,8.94 -19.38,5.48 -35.03,12.18 -46.97,20.14l-14.15 86.45 -163.99 0 0.74 -178.89c39.77,-26.82 85.23,-49.43 136.41,-67.83 51.68,-18.38 107.84,-27.56 168.46,-27.56 99.88,0 180.88,24.58 243,73.79 62.61,48.68 93.92,118.26 93.92,208.71l0 333.17c0,12.43 0,24.1 0,35.04 0.49,10.93 1.49,21.36 2.98,31.31l66.34 8.94 0 130.44 -251.19 0zm-188.59 -145.35c32.79,0 62.61,-6.94 89.45,-20.87 26.84,-14.4 47.7,-32.3 62.62,-53.66l0 -123 -111.08 0c-46.21,0 -81.24,10.93 -105.1,32.8 -23.84,21.38 -35.78,47.21 -35.78,77.52 0,27.34 8.7,48.7 26.1,64.1 17.89,15.41 42.48,23.11 73.79,23.11zm497.91 -529.96l0 -131.19 316.04 0 10.45 93.92c23.84,-34.79 52.41,-61.63 85.71,-80.51 33.3,-18.87 72.06,-28.31 116.28,-28.31 99.88,0 177.4,39 232.56,117.02 55.17,78.01 82.73,180.62 82.73,307.84l0 15.65c0,119.27 -27.56,215.17 -82.73,287.73 -55.16,72.54 -132.18,108.82 -231.06,108.82 -42.24,0 -79.77,-7.71 -112.56,-23.11 -32.8,-15.9 -60.87,-39.02 -84.23,-69.32l0 233.31 105.1 22.35 0 131.19 -427.1 0 0 -131.19 105.1 -22.35 0 -809.48 -116.29 -22.37zm626.12 278.77c0,-76.02 -12.66,-137.65 -38.01,-184.85 -25.35,-47.21 -64.1,-70.81 -116.27,-70.81 -32.8,0 -60.87,6.71 -84.23,20.12 -22.86,13.41 -41,32.55 -54.42,57.4l0 353.31c13.42,22.85 31.56,40.25 54.42,52.17 23.36,11.93 51.93,17.89 85.72,17.89 52.67,0 91.18,-20.63 115.53,-61.87 24.84,-41.23 37.26,-97.14 37.26,-167.71l0 -15.65zm700.67 412.2c-116.28,0 -209.2,-37.26 -278.78,-111.82 -69.56,-74.53 -104.35,-169.19 -104.35,-283.99l0 -29.81c0,-119.76 32.8,-218.4 98.39,-295.91 66.1,-77.52 154.55,-116.04 265.36,-115.53 108.83,0 193.31,32.79 253.43,98.37 60.12,65.6 90.2,154.31 90.2,266.11l0 118.51 -481.52 0 -1.49 4.47c3.97,53.18 21.6,96.91 52.91,131.19 31.81,34.29 74.8,51.44 128.96,51.44 48.2,0 88.2,-4.72 120,-14.17 31.81,-9.93 66.6,-25.33 104.35,-46.21l58.89 134.18c-33.3,26.33 -76.53,48.44 -129.7,66.34 -52.67,17.88 -111.56,26.83 -176.65,26.83zm-19.38 -669.37c-40.26,0 -72.05,15.42 -95.41,46.23 -23.35,30.81 -37.77,71.3 -43.23,121.49l2.24 3.72 266.83 0 0 -19.37c0,-46.22 -10.93,-82.99 -32.78,-110.31 -21.38,-27.83 -53.91,-41.76 -97.65,-41.76zm430.83 -21.6l0 -131.19 316.04 0 10.43 93.92c23.86,-34.79 52.43,-61.63 85.73,-80.51 33.29,-18.87 72.06,-28.31 116.28,-28.31 99.88,0 177.4,39 232.56,117.02 55.15,78.01 82.73,180.62 82.73,307.84l0 15.65c0,119.27 -27.58,215.17 -82.73,287.73 -55.16,72.54 -132.18,108.82 -231.07,108.82 -42.24,0 -79.75,-7.71 -112.55,-23.11 -32.8,-15.9 -60.88,-39.02 -84.24,-69.32l0 233.31 105.1 22.35 0 131.19 -427.1 0 0 -131.19 105.1 -22.35 0 -809.48 -116.28 -22.37zm626.13 278.77c0,-76.02 -12.67,-137.65 -38.02,-184.85 -25.34,-47.21 -64.1,-70.81 -116.27,-70.81 -32.82,0 -60.88,6.71 -84.24,20.12 -22.85,13.41 -40.99,32.55 -54.42,57.4l0 353.31c13.43,22.85 31.57,40.25 54.42,52.17 23.36,11.93 51.93,17.89 85.73,17.89 52.67,0 91.17,-20.63 115.53,-61.87 24.84,-41.23 37.27,-97.14 37.27,-167.71l0 -15.65zm700.66 412.2c-116.28,0 -209.21,-37.26 -278.78,-111.82 -69.56,-74.53 -104.35,-169.19 -104.35,-283.99l0 -29.81c0,-119.76 32.8,-218.4 98.39,-295.91 66.08,-77.52 154.53,-116.04 265.35,-115.53 108.82,0 193.31,32.79 253.44,98.37 60.12,65.6 90.18,154.31 90.18,266.11l0 118.51 -481.52 0 -1.49 4.47c3.99,53.18 21.63,96.91 52.93,131.19 31.8,34.29 74.78,51.44 128.94,51.44 48.2,0 88.21,-4.72 120.02,-14.17 31.81,-9.93 66.58,-25.33 104.35,-46.21l58.89 134.18c-33.3,26.33 -76.52,48.44 -129.7,66.34 -52.67,17.88 -111.56,26.83 -176.65,26.83zm-19.39 -669.37c-40.25,0 -72.04,15.42 -95.4,46.23 -23.35,30.81 -37.77,71.3 -43.24,121.49l2.23 3.72 266.86 0 0 -19.37c0,-46.22 -10.94,-82.99 -32.8,-110.31 -21.36,-27.83 -53.92,-41.76 -97.65,-41.76zm463.64 523.27l104.34 -22.36 0 -500.14 -115.53 -22.37 0 -131.19 318.28 0 9.68 117.78c18.89,-41.76 43.23,-74.3 73.06,-97.65 29.82,-23.36 64.37,-35.03 103.61,-35.03 11.41,0 23.36,0.98 35.8,2.98 12.89,1.49 23.56,3.46 32.05,5.96l-23.14 198.27 -89.44 -2.23c-31.79,0 -58.15,6.2 -79.02,18.63 -20.86,12.42 -36.77,30.06 -47.7,52.93l0 392.06 104.35 22.36 0 130.44 -426.34 0 0 -130.44zm619.39 0l105.13 -22.36 0 -500.14 -116.31 -22.37 0 -131.19 333.96 0 0 653.7 104.34 22.36 0 130.44 -427.12 0 0 -130.44zm322.78 -869.13l-217.65 0 0 -163.22 217.65 0 0 163.22zm689.47 999.57c-5.96,-13.41 -11.19,-27.08 -15.65,-40.99 -4.45,-14.42 -7.97,-28.83 -10.46,-43.23 -25.84,29.8 -57.37,53.9 -94.65,72.3 -36.77,18.38 -78.99,27.58 -126.73,27.58 -78.97,0 -141.84,-21.38 -188.56,-64.1 -46.24,-43.23 -69.33,-101.88 -69.33,-175.91 0,-75.54 30.3,-133.93 90.94,-175.17 60.64,-41.25 149.59,-61.87 266.84,-61.87l111.07 0 0 -79c0,-38.76 -11.17,-68.84 -33.54,-90.2 -22.37,-21.37 -55.41,-32.06 -99.12,-32.06 -24.86,0 -46.97,2.98 -66.34,8.94 -19.41,5.48 -35.05,12.18 -46.97,20.14l-14.17 86.45 -163.96 0 0.73 -178.89c39.76,-26.82 85.22,-49.43 136.39,-67.83 51.68,-18.38 107.87,-27.56 168.46,-27.56 99.9,0 180.88,24.58 243.03,73.79 62.6,48.68 93.89,118.26 93.89,208.71l0 333.17c0,12.43 0,24.1 0,35.04 0.5,10.93 1.49,21.36 2.99,31.31l66.35 8.94 0 130.44 -251.21 0zm-188.56 -145.35c32.78,0 62.61,-6.94 89.43,-20.87 26.83,-14.4 47.7,-32.3 62.6,-53.66l0 -123 -111.07 0c-46.19,0 -81.24,10.93 -105.07,32.8 -23.87,21.38 -35.78,47.21 -35.78,77.52 0,27.34 8.7,48.7 26.1,64.1 17.86,15.41 42.46,23.11 73.79,23.11z"/>
 </g>
</svg>
